# xmcd
#
# Track frame offsets: 
#        150
#        16707
#        34510
#        51699
#        59130
#        79185
#        98489
#        113258
#        123170
#        139837
#        153948
#        171273
#        184197
#        194937
#        209686
#        227050
#        237561
#        254554
#        271420
#        287809
#        300352
#        309048
#
# Disc length: 4237 seconds
#
# Revision: 2
# Processed by: cddbd v1.5.2PL0 Copyright (c) Steve Scherf et al.
# Submitted via: ExactAudioCopy v1.0b1
#
DISCID=39108b16
DTITLE=Josh White - The Elektra Years - disc 1
DYEAR=2004
DGENRE=Blues
TTITLE0=St. James Infirmary (mono)
TTITLE1=You Don't Know My Mind (mono)
TTITLE2=Number Twelve Train (mono)
TTITLE3=Run, Mona, Run (mono)
TTITLE4=Silicosis Blues (mono)
TTITLE5=Red Sun (mono)
TTITLE6=Southern Exposure (mono)
TTITLE7=Timber (mono)
TTITLE8=One Meat Ball (mono)
TTITLE9=Gloomy Sunday (mono)
TTITLE10=Free And Equal Blues (mono)
TTITLE11=Jim Crow Train (mono)
TTITLE12=Live The Life (mono)
TTITLE13=Did You Ever Love A Woman? (mono)
TTITLE14=Delia's Gone (mono)
TTITLE15=So Soon In The Morning (mono)
TTITLE16=Halleleu (mono)
TTITLE17=Mother On That Train (mono)
TTITLE18=Taking Names (mono)
TTITLE19=Joshua Fit The Battle Of Jericho (mono)
TTITLE20=Scandalize My Name (mono)
TTITLE21=Raise A Ruckus (mono)
EXTD=
EXTT0=
EXTT1=
EXTT2=
EXTT3=
EXTT4=
EXTT5=
EXTT6=
EXTT7=
EXTT8=
EXTT9=
EXTT10=
EXTT11=
EXTT12=
EXTT13=
EXTT14=
EXTT15=
EXTT16=
EXTT17=
EXTT18=
EXTT19=
EXTT20=
EXTT21=
PLAYORDER=
